<?xml version="1.0" encoding="UTF-8"?>
<!DOCTYPE svg PUBLIC "-//W3C//DTD SVG 1.1//EN" "http://www.w3.org/Graphics/SVG/1.1/DTD/svg11.dtd">
<!-- Creator: CorelDRAW X7 -->
<svg xmlns="http://www.w3.org/2000/svg" xml:space="preserve" width="1134px" height="1134px" version="1.1" style="shape-rendering:geometricPrecision; text-rendering:geometricPrecision; image-rendering:optimizeQuality; fill-rule:evenodd; clip-rule:evenodd"
viewBox="0 0 1134 1134"
 xmlns:xlink="http://www.w3.org/1999/xlink">
 <defs>
  <style type="text/css">
   <![CDATA[
    .fil0 {fill:#2A2A72}
    .fil2 {fill:#009FFD;fill-rule:nonzero}
    .fil3 {fill:#009FFD;fill-rule:nonzero}
    .fil1 {fill:#EAF6FF;fill-rule:nonzero}
   ]]>
  </style>
 </defs>
 <g id="Слой_x0020_1">
  <metadata id="CorelCorpID_0Corel-Layer"/>
  <g id="_715604928">
   <rect class="fil0" x="3" y="3" width="1132" height="1132" rx="184" ry="184"/>
   <path class="fil1" d="M569 720c0,3 -2,5 -4,7 -2,2 -5,2 -8,2l-77 0c-2,0 -3,1 -4,2 -1,1 -2,2 -3,3l-8 29 92 0 -4 11c-1,2 -2,5 -4,6 -3,2 -5,3 -8,3l-85 0c-2,0 -4,-1 -6,-2 -2,-1 -3,-2 -4,-3 -2,-2 -2,-4 -3,-6 0,-2 0,-4 1,-6l12 -40c2,-5 4,-9 8,-12 4,-3 9,-5 14,-5l95 0 -4 11z"/>
   <path id="1" class="fil1" d="M585 763l82 0 -4 11c0,2 -2,5 -4,6 -3,2 -5,3 -8,3l-92 0 19 -64c1,-3 3,-5 5,-7 2,-2 5,-3 8,-3l10 0 -16 54z"/>
   <path id="2" class="fil1" d="M782 709c2,0 4,1 6,2 2,1 3,2 4,4 2,1 2,3 3,5 0,2 0,4 -1,6l-12 41c-1,5 -4,8 -8,11 -4,3 -9,5 -14,5l-77 0c-3,0 -5,-1 -6,-2 -2,-1 -4,-2 -5,-3 -1,-2 -2,-4 -2,-6 -1,-2 0,-4 0,-6l13 -40c1,-5 4,-9 8,-12 4,-3 8,-5 13,-5l78 0zm-10 23c1,0 1,-1 0,-2 0,0 -1,-1 -2,-1l-64 0c-1,0 -2,1 -4,2 -1,1 -1,2 -2,3l-8 26c0,1 0,1 0,2 1,1 1,1 2,1l64 0c2,0 3,-1 4,-1 1,-1 2,-2 3,-4l7 -26z"/>
   <path id="3" class="fil1" d="M917 709l-17 58c-2,5 -5,8 -9,11 -4,3 -8,5 -13,5l-78 0c-2,0 -4,-1 -6,-2 -2,-1 -3,-2 -4,-3 -1,-2 -2,-4 -3,-6 0,-2 0,-4 1,-6l14 -47c1,-3 3,-5 5,-7 2,-2 5,-3 8,-3l10 0 -16 54 67 0c1,0 3,-1 4,-1 1,-1 2,-2 2,-4l12 -39c1,-3 3,-5 5,-7 2,-2 5,-3 8,-3l10 0z"/>
   <path id="4" class="fil1" d="M1020 709c2,0 4,1 6,2 2,1 3,2 4,4 1,1 2,3 3,5 0,2 0,4 -1,6l-12 41c-2,5 -5,8 -9,11 -4,3 -8,5 -13,5l-95 0 22 -74 95 0zm-9 20l-72 0 -10 34 67 0c2,0 3,-1 4,-1 1,-1 2,-2 2,-4l9 -29z"/>
   <path class="fil2" d="M430 465c-1,4 -62,205 -63,207 -89,0 -178,1 -266,1 -6,0 -12,-2 -17,-4 -5,-3 -9,-7 -12,-11 -4,-5 -6,-10 -7,-15 -1,-6 -1,-11 1,-17l35 -114c2,-7 5,-14 9,-19 4,-6 9,-11 14,-15 6,-4 12,-7 18,-9 7,-2 14,-4 21,-4l267 0zm341 0l-30 101c-2,6 -5,13 -9,18 -4,6 -9,11 -14,15 -6,4 -12,7 -18,9 -7,3 -14,4 -21,4l-27 0 65 61 -76 0 -59 -61 -94 0 17 -57 183 0 10 -33 -203 0 -46 151 -58 0 63 -208 317 0zm-440 138l22 -71c2,-5 2,-10 -4,-10l-181 0c-4,0 -8,1 -11,4 -3,2 -5,5 -7,9l-22 73c-1,2 0,4 1,6 1,1 3,2 5,2l181 0c4,0 7,-1 10,-4 4,-3 5,-4 6,-9zm726 -57c7,5 12,10 15,18 3,8 4,15 1,24l-12 39c-4,14 -12,25 -23,33 -12,8 -25,13 -39,13l-268 0 63 -208 239 0c6,0 12,2 17,5 5,2 9,6 12,10 3,5 6,10 7,15 1,6 0,12 -1,18l-11 33zm-223 -24l-6 19 161 0c4,0 8,-2 11,-4 3,-2 5,-5 6,-9 1,-1 1,-3 0,-4 -1,-1 -2,-2 -4,-2l-168 0zm178 81c0,-1 0,-3 -1,-4 -1,-1 -2,-2 -4,-2l-196 0 -6 19 189 0c4,0 8,-1 11,-4 3,-2 5,-5 7,-9z"/>
   <polygon class="fil3" points="517,449 461,449 597,3 654,3 "/>
   <polygon class="fil3" points="382,703 385,696 441,696 417,775 417,775 415,783 358,783 382,703 "/>
   <path class="fil3" d="M169 1134l134 -438 57 0 -134 439 -38 0c-6,0 -13,-1 -19,-1z"/>
   <polygon class="fil3" points="403,370 406,362 462,362 438,442 438,442 436,449 379,449 403,370 "/>
  </g>
 </g>
</svg>
