<?xml version="1.0" encoding="UTF-8"?>
<!DOCTYPE svg PUBLIC "-//W3C//DTD SVG 1.1//EN" "http://www.w3.org/Graphics/SVG/1.1/DTD/svg11.dtd">
<!-- Creator: CorelDRAW X7 -->
<svg xmlns="http://www.w3.org/2000/svg" xml:space="preserve" width="1134px" height="1134px" version="1.1" style="shape-rendering:geometricPrecision; text-rendering:geometricPrecision; image-rendering:optimizeQuality; fill-rule:evenodd; clip-rule:evenodd"
viewBox="0 0 1134 1134"
 xmlns:xlink="http://www.w3.org/1999/xlink">
 <defs>
  <style type="text/css">
   <![CDATA[
    .fil0 {fill:#2A2A72}
    .fil2 {fill:#009FFD;fill-rule:nonzero}
    .fil3 {fill:#009FFD;fill-rule:nonzero}
    .fil1 {fill:#EAF6FF;fill-rule:nonzero}
   ]]>
  </style>
 </defs>
 <g id="Слой_x0020_1">
  <metadata id="CorelCorpID_0Corel-Layer"/>
  <g id="_716300048">
   <rect class="fil0" x="2" y="-1" width="1134" height="1134"/>
   <path class="fil1" d="M569 717c-1,3 -3,5 -5,7 -2,2 -5,3 -8,3l-77 0c-2,0 -3,0 -4,1 -1,1 -2,2 -3,3l-8 29 92 0 -4 11c0,3 -2,5 -4,6 -3,2 -5,3 -8,3l-85 0c-2,0 -4,0 -6,-1 -2,-1 -3,-3 -5,-4 -1,-2 -1,-4 -2,-6 0,-1 0,-4 0,-6l13 -40c1,-5 4,-9 8,-12 4,-3 9,-5 14,-5l95 0 -3 11z"/>
   <path id="1" class="fil1" d="M584 760l82 0 -3 11c-1,3 -3,5 -5,6 -2,2 -5,3 -8,3l-92 0 20 -64c0,-3 2,-5 4,-7 2,-2 5,-3 8,-3l10 0 -16 54z"/>
   <path id="2" class="fil1" d="M782 706c2,0 4,1 6,2 1,1 3,2 4,4 1,1 2,3 2,5 1,2 1,4 0,6l-12 41c-2,5 -5,9 -9,12 -4,3 -8,4 -13,4l-78 0c-2,0 -4,0 -6,-1 -2,-1 -3,-3 -5,-4 -1,-2 -1,-4 -2,-6 0,-1 0,-4 1,-6l12 -40c1,-5 4,-9 8,-12 4,-3 9,-5 14,-5l78 0zm-10 23c0,0 0,-1 0,-2 -1,0 -1,0 -2,0l-64 0c-2,0 -3,0 -4,1 -1,1 -2,2 -2,3l-8 26c-1,1 -1,1 0,2 0,1 1,1 2,1l64 0c1,0 3,0 4,-1 1,-1 2,-2 2,-4l8 -26z"/>
   <path id="3" class="fil1" d="M917 706l-18 58c-1,5 -4,9 -8,12 -4,3 -8,4 -14,4l-77 0c-2,0 -4,0 -6,-1 -2,-1 -4,-3 -5,-4 -1,-2 -2,-4 -2,-6 0,-1 0,-4 0,-6l15 -47c1,-3 2,-5 5,-7 2,-2 4,-3 7,-3l11 0 -16 54 67 0c1,0 2,0 4,-1 1,-1 1,-2 2,-4l12 -39c1,-3 2,-5 5,-7 2,-2 5,-3 7,-3l11 0z"/>
   <path id="4" class="fil1" d="M1020 706c2,0 4,1 6,2 2,1 3,2 4,4 1,1 2,3 2,5 1,2 1,4 0,6l-12 41c-2,5 -5,9 -9,12 -4,3 -8,4 -13,4l-95 0 22 -74 95 0zm-9 21l-72 0 -10 33 67 0c2,0 3,0 4,-1 1,-1 2,-2 2,-4l9 -28z"/>
   <path class="fil2" d="M429 462c-1,4 -62,204 -63,207 -89,0 -178,1 -267,1 -6,0 -11,-2 -17,-4 -5,-3 -9,-7 -12,-11 -3,-5 -6,-10 -7,-15 -1,-6 -1,-11 1,-17l35 -115c3,-7 6,-13 9,-19 4,-5 9,-10 15,-14 5,-4 11,-8 18,-10 6,-2 13,-3 20,-3l268 0zm342 0l-31 100c-2,7 -5,13 -9,19 -4,6 -9,11 -14,15 -6,4 -12,7 -18,9 -7,2 -13,4 -21,4l-26 0 64 61 -76 0 -59 -61 -94 0 17 -57 183 0 10 -33 -203 0 -46 151 -58 0 63 -208 318 0zm-441 138l22 -72c2,-4 2,-9 -5,-9l-181 0c-4,0 -7,1 -11,3 -3,3 -5,6 -6,10l-23 73c0,2 0,4 1,6 1,1 3,2 5,2l181 0c4,0 8,-1 11,-4 4,-3 5,-5 6,-9zm727 -57c7,4 12,10 15,18 3,7 4,15 1,24l-12 39c-4,14 -12,25 -23,33 -12,8 -25,13 -39,13l-269 0 64 -208 239 0c6,0 12,1 17,4 5,3 9,6 12,11 3,4 6,9 7,15 1,6 1,11 -1,17l-11 34zm-224 -24l-5 18 161 0c4,0 8,-1 11,-3 3,-2 5,-5 6,-9 1,-2 1,-3 0,-4 -1,-2 -2,-2 -4,-2l-169 0zm179 81c0,-1 0,-3 -1,-4 -1,-1 -2,-2 -4,-2l-197 0 -5 19 189 0c4,0 8,-1 11,-4 3,-2 5,-5 7,-9z"/>
   <polygon class="fil3" points="516,446 460,446 596,-1 653,-1 "/>
   <polygon class="fil3" points="381,700 384,693 440,693 416,772 416,772 414,780 357,780 381,700 "/>
   <polygon class="fil3" points="168,1133 302,693 359,693 224,1133 "/>
   <polygon class="fil3" points="402,366 405,359 461,359 437,438 437,438 435,446 378,446 402,366 "/>
  </g>
 </g>
</svg>
