<?xml version="1.0" encoding="UTF-8"?>
<!DOCTYPE svg PUBLIC "-//W3C//DTD SVG 1.1//EN" "http://www.w3.org/Graphics/SVG/1.1/DTD/svg11.dtd">
<!-- Creator: CorelDRAW X7 -->
<svg xmlns="http://www.w3.org/2000/svg" xml:space="preserve" width="1134px" height="1134px" version="1.1" style="shape-rendering:geometricPrecision; text-rendering:geometricPrecision; image-rendering:optimizeQuality; fill-rule:evenodd; clip-rule:evenodd"
viewBox="0 0 1134 1134"
 xmlns:xlink="http://www.w3.org/1999/xlink">
 <defs>
  <style type="text/css">
   <![CDATA[
    .fil0 {fill:#2A2A72}
    .fil2 {fill:#009FFD;fill-rule:nonzero}
    .fil3 {fill:#009FFD;fill-rule:nonzero}
    .fil1 {fill:#EAF6FF;fill-rule:nonzero}
   ]]>
  </style>
 </defs>
 <g id="Слой_x0020_1">
  <metadata id="CorelCorpID_0Corel-Layer"/>
  <g id="_716297200">
   <circle class="fil0" cx="569" cy="567" r="565"/>
   <path class="fil1" d="M568 730c-1,3 -3,6 -5,7 -3,2 -5,3 -8,3l-81 0c-2,0 -3,0 -4,1 -1,1 -2,2 -3,4l-9 30 96 0 -3 11c-1,3 -3,5 -5,7 -3,2 -5,3 -8,3l-89 0c-2,0 -4,-1 -6,-2 -2,-1 -4,-2 -5,-4 -1,-2 -2,-3 -2,-5 -1,-2 0,-5 0,-7l13 -42c2,-5 5,-9 9,-12 4,-3 9,-5 14,-5l99 0 -3 11z"/>
   <path id="1" class="fil1" d="M584 775l85 0 -3 11c-1,3 -3,5 -5,7 -3,2 -5,3 -8,3l-97 0 21 -67c1,-3 2,-6 5,-7 2,-2 5,-3 8,-3l11 0 -17 56z"/>
   <path id="2" class="fil1" d="M789 719c3,0 5,0 7,1 2,1 3,3 4,4 1,2 2,4 3,6 0,2 0,4 -1,6l-13 43c-1,5 -4,9 -8,12 -5,3 -9,5 -15,5l-80 0c-3,0 -5,-1 -7,-2 -2,-1 -3,-2 -4,-4 -2,-2 -2,-3 -3,-5 0,-2 0,-5 1,-7l13 -42c1,-5 4,-9 8,-12 4,-3 9,-5 14,-5l81 0zm-10 24c1,-1 0,-2 0,-2 0,-1 -1,-1 -2,-1l-67 0c-1,0 -3,0 -4,1 -1,1 -2,2 -2,4l-8 27c-1,1 -1,1 0,2 0,0 1,1 2,1l67 0c1,0 3,-1 4,-2 1,-1 2,-2 2,-3l8 -27z"/>
   <path id="3" class="fil1" d="M930 719l-18 60c-2,5 -4,9 -9,12 -4,3 -8,5 -14,5l-81 0c-2,0 -4,-1 -6,-2 -2,-1 -3,-2 -5,-4 -1,-2 -2,-3 -2,-5 0,-2 0,-5 0,-7l16 -49c0,-3 2,-6 4,-7 3,-2 5,-3 8,-3l11 0 -17 56 70 0c2,0 3,-1 4,-2 2,-1 2,-2 3,-3l12 -41c1,-3 3,-6 5,-7 3,-2 5,-3 8,-3l11 0z"/>
   <path id="4" class="fil1" d="M1038 719c2,0 4,0 6,1 2,1 3,3 4,4 1,2 2,4 3,6 0,2 0,4 -1,6l-13 43c-1,5 -4,9 -8,12 -4,3 -9,5 -14,5l-100 0 24 -77 99 0zm-10 21l-75 0 -10 35 70 0c1,0 3,-1 4,-2 1,-1 2,-2 2,-3l9 -30z"/>
   <path class="fil2" d="M422 464c-1,4 -65,213 -66,216 -92,0 -185,1 -278,1 -6,0 -12,-2 -17,-5 -5,-2 -10,-6 -13,-11 -3,-4 -6,-10 -7,-15 -1,-6 -1,-12 1,-18l37 -120c2,-7 5,-13 9,-19 4,-6 9,-11 15,-15 6,-5 12,-8 19,-10 7,-2 14,-4 21,-4l279 0zm356 0l-32 105c-2,7 -5,13 -9,19 -4,6 -9,11 -15,16 -6,4 -12,7 -19,9 -6,3 -14,4 -21,4l-28 0 67 64 -79 0 -62 -64 -98 0 19 -59 190 0 10 -35 -211 0 -48 158 -61 0 66 -217 331 0zm-459 144l23 -75c2,-4 2,-10 -5,-10l-189 0c-4,0 -8,2 -11,4 -3,3 -5,6 -7,10l-23 77c-1,2 -1,3 1,5 1,2 3,3 5,3l189 0c4,0 8,-2 11,-4 4,-3 5,-5 6,-10zm758 -59c7,4 12,10 15,18 3,8 4,16 1,25l-13 41c-4,14 -12,26 -24,35 -12,8 -25,13 -40,13l-280 0 66 -217 249 0c7,0 13,2 18,5 5,2 9,6 13,11 3,4 5,10 6,16 2,6 1,12 0,18l-11 35zm-234 -26l-6 20 168 0c5,0 8,-1 12,-4 3,-2 5,-5 7,-9 0,-2 0,-3 -1,-4 -1,-2 -2,-3 -4,-3l-176 0zm186 85c1,-1 0,-3 -1,-4 -1,-1 -2,-2 -4,-2l-205 0 -6 20 198 0c4,0 8,-2 11,-4 3,-3 6,-6 7,-10z"/>
   <path class="fil3" d="M513 447l-59 0 136 -444c19,1 38,3 57,5l-134 439z"/>
   <polygon class="fil3" points="372,713 375,705 434,705 408,787 408,787 406,795 347,795 372,713 "/>
   <path class="fil3" d="M201 996l89 -291 59 0 -100 328c-17,-12 -33,-24 -48,-37z"/>
   <polygon class="fil3" points="394,365 397,357 456,357 430,440 430,440 428,447 369,447 394,365 "/>
  </g>
 </g>
</svg>
